<svg width="256" height="256" viewBox="0 0 256 256" xmlns="http://www.w3.org/2000/svg">
  <defs>
    <linearGradient id="bg" x1="0%" y1="0%" x2="100%" y2="100%">
      <stop offset="0%" style="stop-color:#25d366;stop-opacity:1" />
      <stop offset="100%" style="stop-color:#128c7e;stop-opacity:1" />
    </linearGradient>
  </defs>
  
  <!-- Fondo circular -->
  <circle cx="128" cy="128" r="120" fill="url(#bg)" stroke="#ffffff" stroke-width="4"/>
  
  <!-- Icono de WhatsApp -->
  <path d="M128 48c-44.18 0-80 35.82-80 80 0 17.67 5.76 34.82 16.36 48.82L48 208l31.18-16.36C93.18 202.24 110.33 208 128 208c44.18 0 80-35.82 80-80s-35.82-80-80-80zm0 144c-16.47 0-32.47-5.36-45.82-15.18L80 176l-1.18-2.18C68.64 160.47 63.2 144.47 63.2 128c0-35.76 29.04-64.8 64.8-64.8s64.8 29.04 64.8 64.8-29.04 64.8-64.8 64.8z" fill="#ffffff"/>
  
  <!-- Icono de Excel -->
  <rect x="100" y="100" width="56" height="56" rx="8" fill="#ffffff" opacity="0.9"/>
  <path d="M108 108h40v8h-40v-8zm0 16h40v8h-40v-8zm0 16h40v8h-40v-8zm0 16h40v8h-40v-8z" fill="#25d366"/>
  
  <!-- Texto "W" -->
  <text x="128" y="140" font-family="Arial, sans-serif" font-size="24" font-weight="bold" text-anchor="middle" fill="#25d366">W</text>
</svg> 